<svg xmlns="http://www.w3.org/2000/svg" viewBox="0 0 188.22 140.57"><defs><style>.cls-1{fill:#f8f8f8;}</style></defs><g id="Layer_2" data-name="Layer 2"><g id="Composition"><g id="Wordmark"><path class="cls-1" d="M52.82,140.12H46.38L57.16,114.9h6.77l10.84,25.22H68.29l-1.63-3.93H54.49Zm7.79-18.32-4,9.41h7.93Zm24,18.32H78.51V114.9h6.12l12.76,15.39V114.9h6.12v25.22H97.39L84.63,124.7Zm22.94-12.8h0a12.18,12.18,0,0,1,1-5,13,13,0,0,1,2.82-4.09,13.45,13.45,0,0,1,4.35-2.77,14.56,14.56,0,0,1,5.45-1h0a14.34,14.34,0,0,1,7,1.69,12.44,12.44,0,0,1,4.82,4.61h0l-5.15,3a7,7,0,0,0-2.64-2.8,7.85,7.85,0,0,0-4.06-1h0a7.33,7.33,0,0,0-5.39,2.11,7.16,7.16,0,0,0-2.1,5.26h0a7.72,7.72,0,0,0,.93,3.72,7.43,7.43,0,0,0,6.56,3.81h0a7.46,7.46,0,0,0,4-1,7.07,7.07,0,0,0,2.67-2.78h0l5.17,3a13.45,13.45,0,0,1-11.79,6.57h0a14.53,14.53,0,0,1-5.46-1,13.41,13.41,0,0,1-4.34-2.8,13,13,0,0,1-2.82-4.21A13.25,13.25,0,0,1,107.57,127.32Zm48.82,12.8H137.07V114.9h19.32v5.65H143.16v4.33h11.05v5.27H143.16v4.34h13.23Zm9.89,0h-6.44l10.79-25.22h6.77l10.82,25.22h-6.48l-1.63-3.93H168Zm7.78-18.32-4,9.41H178Z"/></g><g id="Logo"><path class="cls-1" d="M6.09,140.13H0V0H82.75a48.73,48.73,0,0,1,25.38,7.07A53.28,53.28,0,0,1,127,26a48.67,48.67,0,0,1,7,25.29h0a57.68,57.68,0,0,1-4.16,22.13,47.75,47.75,0,0,1-11.16,16.8,50.38,50.38,0,0,1-16.33,10.36,52.79,52.79,0,0,1-19.63,3.68H47.38V98.17H82.75a43,43,0,0,0,17.35-3.61A44.77,44.77,0,0,0,124.3,70a48.3,48.3,0,0,0,3.62-18.67h0A43.16,43.16,0,0,0,121.76,29a46.69,46.69,0,0,0-16.64-16.66A43,43,0,0,0,82.75,6.1H6.09Zm12.18,0h-6.1V12.19H82.75a37,37,0,0,1,19.3,5.42,41,41,0,0,1,14.41,14.47,37,37,0,0,1,5.38,19.2h0a41.33,41.33,0,0,1-5.42,21,39,39,0,0,1-14.33,14.63,37.78,37.78,0,0,1-19.34,5.2H47.38V86H82.75a32.16,32.16,0,0,0,28.4-16.58,35.8,35.8,0,0,0,4.6-18.12h0q0-13-9.94-23t-23.06-10H18.27Zm12.18,0H24.36V24.38H82.75q10.65,0,18.79,8.21t8.11,18.69h0q0,13-7.86,20.78a26,26,0,0,1-19,7.83H47.38v-6.1H82.75a20.43,20.43,0,0,0,14.77-5.87q6-5.89,6-16.64h0q0-8-6.34-14.42t-14.47-6.4H30.45Zm12.18,0H36.55V36.57h46.2A14.08,14.08,0,0,1,93.11,41a14.18,14.18,0,0,1,4.37,10.32h0q0,16.42-14.73,16.42H47.38V61.6H82.75a8.54,8.54,0,0,0,6.34-2.29q2.28-2.28,2.28-8h0a8.22,8.22,0,0,0-2.5-6.16,8.35,8.35,0,0,0-6.12-2.47H42.63Z"/></g></g></g></svg>