<svg xmlns="http://www.w3.org/2000/svg" viewBox="0 0 325.6 52.68"><defs><style>.cls-1{fill:#38c3c9;}</style></defs><g id="Layer_2" data-name="Layer 2"><g id="Composition"><g id="Wordmark"><path class="cls-1" d="M12.35,51.77H0V.87H23.49A20.68,20.68,0,0,1,32,2.54,16.28,16.28,0,0,1,38.07,7a20.68,20.68,0,0,1,3.52,6.24,21.36,21.36,0,0,1,1.24,7.27h0a23.14,23.14,0,0,1-.75,5.89,19.12,19.12,0,0,1-6.2,9.81,17.68,17.68,0,0,1-5.45,3,21.62,21.62,0,0,1-7,1.1H12.35Zm0-39.5V28.93h9.76a8.29,8.29,0,0,0,6.05-2.19,8.29,8.29,0,0,0,2.25-6.24h0a7.91,7.91,0,0,0-2.23-6.07,8.84,8.84,0,0,0-6.07-2.16H12.35Zm40,39.5h-13L61.09.87H74.75l21.86,50.9H83.54l-3.29-7.93H55.69ZM68,14.79,60,33.79H76Zm48.48,37H104.17V.87h12.35l25.76,31.05V.87h12.35v50.9H142.28L116.52,20.64Zm46.3-25.83h0a24.64,24.64,0,0,1,2.09-10,26.26,26.26,0,0,1,5.69-8.27,26.69,26.69,0,0,1,8.78-5.57,29,29,0,0,1,11-2.09h0a29.1,29.1,0,0,1,14.2,3.41,25.27,25.27,0,0,1,9.73,9.31h0l-10.4,6.07a14,14,0,0,0-5.34-5.65,15.72,15.72,0,0,0-8.19-2.07h0a14.75,14.75,0,0,0-10.87,4.25,14.39,14.39,0,0,0-4.25,10.62h0a15.53,15.53,0,0,0,1.89,7.5,15,15,0,0,0,13.23,7.7h0a15.13,15.13,0,0,0,8-2.09,14.53,14.53,0,0,0,5.39-5.61h0l10.42,6a27.24,27.24,0,0,1-23.79,13.26h0a29.11,29.11,0,0,1-11-2.07A26.66,26.66,0,0,1,170.6,45a26.23,26.23,0,0,1-5.69-8.49A26.82,26.82,0,0,1,162.82,25.94Zm98.54,25.83h-39V.87h39v11.4h-26.7V21H257V31.65H234.66v8.76h26.7Zm19.95,0h-13L290.09.87h13.67l21.84,50.9H312.52l-3.28-7.93H284.68Zm15.72-37-8.08,19h16Z"/></g></g></g></svg>