<?xml version="1.0" standalone="no"?>
<!DOCTYPE svg PUBLIC "-//W3C//DTD SVG 20010904//EN"
 "http://www.w3.org/TR/2001/REC-SVG-20010904/DTD/svg10.dtd">
<svg version="1.0" xmlns="http://www.w3.org/2000/svg"
 width="560.000000pt" height="560.000000pt" viewBox="0 0 560.000000 560.000000"
 preserveAspectRatio="xMidYMid meet">
<metadata>
Created by potrace 1.11, written by Peter Selinger 2001-2013
</metadata>
<g transform="translate(0.000000,560.000000) scale(0.100000,-0.100000)"
fill="#000000" stroke="none">
<path d="M130 2800 l0 -2800 119 0 c86 0 120 3 123 13 2 6 3 1210 2 2674 0
1888 3 2663 10 2666 18 6 3208 -1 3241 -7 17 -3 50 -8 75 -11 122 -13 335 -81
486 -154 109 -53 289 -166 356 -223 15 -13 36 -30 46 -38 74 -57 225 -218 282
-300 13 -19 27 -37 31 -40 3 -3 29 -42 57 -87 127 -202 198 -380 248 -618 38
-178 37 -438 -1 -684 -10 -65 -55 -231 -81 -299 -15 -37 -26 -73 -27 -79 0 -7
-3 -13 -7 -13 -4 0 -7 -6 -7 -13 0 -17 -85 -185 -135 -265 -98 -158 -245 -323
-400 -449 -42 -35 -78 -63 -81 -63 -2 0 -35 -21 -73 -47 -93 -62 -290 -156
-416 -197 -123 -40 -283 -74 -393 -82 -44 -4 -414 -7 -823 -7 l-743 0 3 -121
3 -121 800 -1 c440 0 804 2 810 5 5 3 16 6 25 6 398 38 811 212 1120 472 85
71 208 202 277 295 100 133 159 237 247 430 47 104 124 372 141 491 3 27 8 58
11 70 18 96 26 460 11 562 -3 28 -9 70 -13 95 -10 76 -48 235 -72 300 -3 8 -6
20 -7 26 -8 34 -85 210 -122 276 -24 43 -43 81 -43 83 0 7 -140 216 -154 231
-6 6 -24 29 -41 50 -217 282 -606 556 -950 669 -64 21 -157 48 -162 47 -2 -1
-17 4 -35 9 -18 5 -62 14 -98 20 -36 6 -78 13 -95 17 -16 3 -821 8 -1787 9
l-1758 4 0 -2801z"/>
<path d="M621 5100 c-4 -8 -7 -1158 -7 -2555 l1 -2540 123 -3 122 -3 0 2436 0
2436 1368 -4 c752 -2 1384 -7 1405 -11 43 -7 116 -26 196 -51 64 -20 225 -94
229 -106 2 -5 8 -9 13 -9 12 0 102 -63 169 -119 67 -55 162 -151 210 -210 19
-24 40 -48 45 -55 30 -32 119 -184 149 -253 81 -186 106 -319 102 -543 -2 -91
-7 -178 -11 -195 -4 -16 -8 -39 -10 -50 -1 -11 -8 -42 -15 -70 -6 -27 -13 -54
-14 -60 -7 -36 -45 -134 -82 -212 -131 -283 -343 -501 -614 -631 -82 -40 -216
-88 -269 -97 -63 -10 -88 -15 -111 -21 -14 -4 -378 -7 -810 -8 l-785 -2 -3
-122 -3 -122 33 0 c18 -1 353 -1 743 -1 726 0 803 3 920 26 22 4 47 9 55 10
25 5 104 26 120 32 8 3 20 7 25 9 43 12 151 58 205 86 124 66 150 82 223 137
214 163 357 336 475 574 54 108 126 312 137 387 4 24 8 47 10 50 4 6 13 65 21
135 6 49 6 322 1 342 -3 10 -8 41 -12 68 -3 28 -10 66 -15 85 -5 19 -11 46
-14 60 -27 150 -185 456 -318 614 -33 39 -154 162 -200 202 -204 178 -528 330
-768 360 -19 2 -57 7 -85 10 -27 3 -702 7 -1498 8 -1279 1 -1450 -1 -1456 -14z"/>
<path d="M1111 4621 c-5 -4 -8 -1030 -8 -2314 l0 -2308 121 3 121 3 0 2182 c0
1200 4 2185 8 2189 9 9 2111 9 2185 0 29 -4 63 -11 77 -16 14 -5 25 -8 25 -5
0 6 115 -43 167 -71 154 -86 324 -273 392 -433 56 -133 75 -280 56 -431 -2
-19 -7 -55 -10 -80 -3 -25 -13 -70 -22 -100 -93 -329 -346 -540 -698 -586 -11
-1 -354 -3 -763 -3 l-743 -1 3 -121 3 -122 755 1 c755 0 792 1 906 27 322 74
608 319 735 630 15 38 14 33 43 140 41 152 53 360 30 508 -69 436 -466 830
-909 903 -48 8 -2461 12 -2474 5z"/>
<path d="M1590 2070 l0 -2070 120 0 c107 0 120 2 120 18 1 9 1 884 1 1944 0
1467 3 1927 12 1930 7 2 383 3 837 3 l825 -2 58 -22 c73 -29 149 -102 184
-177 22 -48 26 -72 26 -148 1 -119 -8 -175 -40 -241 -37 -80 -119 -143 -211
-161 -16 -3 -359 -6 -763 -7 l-734 -2 0 -120 0 -120 740 -1 c810 0 841 1 961
56 88 41 179 131 221 220 53 113 67 188 67 355 0 139 -2 155 -26 217 -68 172
-193 297 -366 366 l-67 27 -982 2 -983 3 0 -2070z"/>
</g>
</svg>
