<?xml version="1.0" encoding="utf-8"?>
<!-- Generator: Adobe Illustrator 25.0.1, SVG Export Plug-In . SVG Version: 6.00 Build 0)  -->
<svg version="1.1" id="Layer_1" xmlns="http://www.w3.org/2000/svg" xmlns:xlink="http://www.w3.org/1999/xlink" x="0px" y="0px"
	 viewBox="0 0 45.4 45.4" style="enable-background:new 0 0 45.4 45.4;" xml:space="preserve">
<style type="text/css">
	.st0{fill:#11B3BC;}
</style>
<path class="st0" d="M39,31.8V15.4H13.6v16.3H39 M39,6.4c2,0,3.6,1.6,3.6,3.6v21.8c0,2-1.6,3.6-3.6,3.6H13.6c-2,0-3.6-1.6-3.6-3.6
	c0,0,0,0,0,0V10c0-2,1.6-3.6,3.6-3.6h1.8V2.7h3.6v3.6h14.5V2.7h3.6v3.6L39,6.4 M6.4,39h25.4v3.6H6.4c-2,0-3.6-1.6-3.6-3.6
	c0,0,0,0,0,0V17.3h3.6V39z"/>
</svg>
