<?xml version="1.0" encoding="utf-8"?>
<!-- Generator: Adobe Illustrator 25.0.1, SVG Export Plug-In . SVG Version: 6.00 Build 0)  -->
<svg version="1.1" id="Layer_1" xmlns="http://www.w3.org/2000/svg" xmlns:xlink="http://www.w3.org/1999/xlink" x="0px" y="0px"
	 viewBox="0 0 24 24" style="enable-background:new 0 0 24 24;" xml:space="preserve">
<style type="text/css">
	.st0{fill:#1AAF9F;}
</style>
<path class="st0" d="M4,2C2.9,2,2,2.9,2,4v10h2V4h10V2H4 M8,6C6.9,6,6,6.9,6,8v10h2V8h10V6H8 M12,10c-1.1,0-2,0.9-2,2v8
	c0,1.1,0.9,2,2,2h8c1.1,0,2-0.9,2-2v-8c0-1.1-0.9-2-2-2H12z"/>
</svg>
