<svg xmlns="http://www.w3.org/2000/svg" width="54.067" height="38.788" viewBox="0 0 54.067 38.788"><defs><style>.a{fill:#1aaf9f;}</style></defs><path class="a" d="M20.266,6H65.69V36.282H20.266V6m22.712,7.571a7.571,7.571,0,1,1-7.571,7.571,7.571,7.571,0,0,1,7.571-7.571M30.36,11.047a5.047,5.047,0,0,1-5.047,5.047V26.188a5.047,5.047,0,0,1,5.047,5.047H55.6a5.047,5.047,0,0,1,5.047-5.047V16.094A5.047,5.047,0,0,1,55.6,11.047H30.36" transform="translate(-11.623 -6)"/><path class="a" d="M5.482,62.1H50.036v4.482H5.482A4.48,4.48,0,0,1,1,62.1V35.215H5.482Z" transform="translate(-1 -27.798)"/></svg>